<mxfile host="app.diagrams.net" modified="2022-08-11T01:43:48.643Z" agent="5.0 (X11; Linux x86_64) AppleWebKit/537.36 (KHTML, like Gecko) Chrome/103.0.0.0 Safari/537.36" etag="_72sd0P8slUn5TZVHfpy" version="20.2.3" type="github">
  <diagram id="KK7mneQX546Yi9BlVKP1" name="PÃ¡gina-1">
    <mxGraphModel dx="2588" dy="1920" grid="0" gridSize="10" guides="1" tooltips="1" connect="1" arrows="1" fold="1" page="0" pageScale="1" pageWidth="827" pageHeight="1169" math="0" shadow="0">
      <root>
        <mxCell id="0" />
        <mxCell id="1" parent="0" />
        <mxCell id="BKo2yRII5ONMQImQBUrI-1" value="User.js" style="rounded=0;whiteSpace=wrap;html=1;verticalAlign=top;" vertex="1" parent="1">
          <mxGeometry x="276" y="-446" width="380" height="207" as="geometry" />
        </mxCell>
        <mxCell id="BKo2yRII5ONMQImQBUrI-7" value="" style="edgeStyle=orthogonalEdgeStyle;rounded=0;orthogonalLoop=1;jettySize=auto;html=1;" edge="1" parent="1" source="BKo2yRII5ONMQImQBUrI-3">
          <mxGeometry relative="1" as="geometry">
            <mxPoint x="466" y="-445" as="targetPoint" />
          </mxGeometry>
        </mxCell>
        <mxCell id="BKo2yRII5ONMQImQBUrI-3" value="&quot;/&quot;" style="shape=trapezoid;perimeter=trapezoidPerimeter;whiteSpace=wrap;html=1;fixedSize=1;" vertex="1" parent="1">
          <mxGeometry x="406" y="-531" width="120" height="60" as="geometry" />
        </mxCell>
        <mxCell id="BKo2yRII5ONMQImQBUrI-13" style="edgeStyle=orthogonalEdgeStyle;rounded=0;orthogonalLoop=1;jettySize=auto;html=1;entryX=0.5;entryY=0;entryDx=0;entryDy=0;" edge="1" parent="1" source="BKo2yRII5ONMQImQBUrI-4" target="BKo2yRII5ONMQImQBUrI-12">
          <mxGeometry relative="1" as="geometry" />
        </mxCell>
        <mxCell id="BKo2yRII5ONMQImQBUrI-4" value="Login.js" style="rounded=0;whiteSpace=wrap;html=1;" vertex="1" parent="1">
          <mxGeometry x="310" y="-399" width="120" height="60" as="geometry" />
        </mxCell>
        <mxCell id="BKo2yRII5ONMQImQBUrI-5" value="Signup.js" style="rounded=0;whiteSpace=wrap;html=1;" vertex="1" parent="1">
          <mxGeometry x="507" y="-399" width="120" height="60" as="geometry" />
        </mxCell>
        <mxCell id="BKo2yRII5ONMQImQBUrI-6" value="" style="endArrow=classic;startArrow=classic;html=1;rounded=0;entryX=0;entryY=0.5;entryDx=0;entryDy=0;" edge="1" parent="1" source="BKo2yRII5ONMQImQBUrI-4" target="BKo2yRII5ONMQImQBUrI-5">
          <mxGeometry width="50" height="50" relative="1" as="geometry">
            <mxPoint x="377" y="-271" as="sourcePoint" />
            <mxPoint x="427" y="-321" as="targetPoint" />
          </mxGeometry>
        </mxCell>
        <mxCell id="BKo2yRII5ONMQImQBUrI-11" value="Subscriptions.js" style="rounded=0;whiteSpace=wrap;html=1;verticalAlign=top;" vertex="1" parent="1">
          <mxGeometry x="-66" y="-155" width="380" height="207" as="geometry" />
        </mxCell>
        <mxCell id="BKo2yRII5ONMQImQBUrI-14" style="edgeStyle=orthogonalEdgeStyle;rounded=0;orthogonalLoop=1;jettySize=auto;html=1;entryX=0.5;entryY=0;entryDx=0;entryDy=0;" edge="1" parent="1" source="BKo2yRII5ONMQImQBUrI-12" target="BKo2yRII5ONMQImQBUrI-11">
          <mxGeometry relative="1" as="geometry" />
        </mxCell>
        <mxCell id="BKo2yRII5ONMQImQBUrI-12" value="&quot;/subscriptions&quot;" style="shape=trapezoid;perimeter=trapezoidPerimeter;whiteSpace=wrap;html=1;fixedSize=1;" vertex="1" parent="1">
          <mxGeometry x="64" y="-299" width="120" height="60" as="geometry" />
        </mxCell>
        <mxCell id="BKo2yRII5ONMQImQBUrI-17" value="" style="edgeStyle=orthogonalEdgeStyle;rounded=0;orthogonalLoop=1;jettySize=auto;html=1;" edge="1" parent="1" source="BKo2yRII5ONMQImQBUrI-15" target="BKo2yRII5ONMQImQBUrI-16">
          <mxGeometry relative="1" as="geometry" />
        </mxCell>
        <mxCell id="BKo2yRII5ONMQImQBUrI-15" value="NewPlan.js" style="rounded=0;whiteSpace=wrap;html=1;" vertex="1" parent="1">
          <mxGeometry x="-34" y="-119" width="120" height="60" as="geometry" />
        </mxCell>
        <mxCell id="BKo2yRII5ONMQImQBUrI-18" style="edgeStyle=orthogonalEdgeStyle;rounded=0;orthogonalLoop=1;jettySize=auto;html=1;" edge="1" parent="1" source="BKo2yRII5ONMQImQBUrI-16" target="BKo2yRII5ONMQImQBUrI-19">
          <mxGeometry relative="1" as="geometry">
            <mxPoint x="75.85714285714289" y="93" as="targetPoint" />
            <Array as="points">
              <mxPoint x="25" y="41" />
              <mxPoint x="213" y="41" />
            </Array>
          </mxGeometry>
        </mxCell>
        <mxCell id="BKo2yRII5ONMQImQBUrI-16" value="&quot;/subscriptions&lt;br&gt;/id_do_plano&quot;" style="shape=trapezoid;perimeter=trapezoidPerimeter;whiteSpace=wrap;html=1;fixedSize=1;" vertex="1" parent="1">
          <mxGeometry x="-34" y="-35" width="120" height="60" as="geometry" />
        </mxCell>
        <mxCell id="BKo2yRII5ONMQImQBUrI-19" value="NewPlan.js" style="rounded=0;whiteSpace=wrap;html=1;" vertex="1" parent="1">
          <mxGeometry x="153" y="-35" width="120" height="60" as="geometry" />
        </mxCell>
        <mxCell id="BKo2yRII5ONMQImQBUrI-20" value="Local Storage" style="swimlane;" vertex="1" parent="1">
          <mxGeometry x="-124" y="-607" width="200" height="200" as="geometry" />
        </mxCell>
        <mxCell id="BKo2yRII5ONMQImQBUrI-21" value="TokenObj" style="text;html=1;align=center;verticalAlign=middle;resizable=0;points=[];autosize=1;strokeColor=none;fillColor=none;" vertex="1" parent="1">
          <mxGeometry x="-97" y="-572" width="69" height="26" as="geometry" />
        </mxCell>
        <mxCell id="BKo2yRII5ONMQImQBUrI-22" value="&quot;ASPARGOS &quot;" style="rounded=0;whiteSpace=wrap;html=1;" vertex="1" parent="1">
          <mxGeometry x="-356" y="420" width="532" height="60" as="geometry" />
        </mxCell>
        <mxCell id="BKo2yRII5ONMQImQBUrI-24" value="" style="swimlane;startSize=0;labelBackgroundColor=default;labelBorderColor=none;fontColor=default;" vertex="1" parent="1">
          <mxGeometry x="-67" y="431" width="9" height="113" as="geometry" />
        </mxCell>
        <mxCell id="BKo2yRII5ONMQImQBUrI-26" value="CONTADOR = 2" style="whiteSpace=wrap;html=1;labelBackgroundColor=default;labelBorderColor=none;fontColor=default;" vertex="1" parent="1">
          <mxGeometry x="-268" y="510" width="120" height="60" as="geometry" />
        </mxCell>
      </root>
    </mxGraphModel>
  </diagram>
</mxfile>
